<?xml version="1.0" encoding="UTF-8" standalone="no"?>
<!-- Created with Inkscape (http://www.inkscape.org/) -->

<svg
   xmlns:dc="http://purl.org/dc/elements/1.1/"
   xmlns:cc="http://creativecommons.org/ns#"
   xmlns:rdf="http://www.w3.org/1999/02/22-rdf-syntax-ns#"
   xmlns:svg="http://www.w3.org/2000/svg"
   xmlns="http://www.w3.org/2000/svg"
   xmlns:sodipodi="http://sodipodi.sourceforge.net/DTD/sodipodi-0.dtd"
   xmlns:inkscape="http://www.inkscape.org/namespaces/inkscape"
   width="210mm"
   height="297mm"
   viewBox="0 0 210 297"
   version="1.1"
   id="svg8"
   inkscape:version="0.92.3 (2405546, 2018-03-11)"
   sodipodi:docname="Logo.svg">
  <defs
     id="defs2" />
  <sodipodi:namedview
     id="base"
     pagecolor="#ffffff"
     bordercolor="#666666"
     borderopacity="1.0"
     inkscape:pageopacity="0.0"
     inkscape:pageshadow="2"
     inkscape:zoom="0.98994949"
     inkscape:cx="86.556511"
     inkscape:cy="828.46585"
     inkscape:document-units="mm"
     inkscape:current-layer="layer1"
     showgrid="false"
     inkscape:snap-global="false"
     inkscape:window-width="1920"
     inkscape:window-height="1017"
     inkscape:window-x="-8"
     inkscape:window-y="-8"
     inkscape:window-maximized="1" />
  <metadata
     id="metadata5">
    <rdf:RDF>
      <cc:Work
         rdf:about="">
        <dc:format>image/svg+xml</dc:format>
        <dc:type
           rdf:resource="http://purl.org/dc/dcmitype/StillImage" />
        <dc:title />
      </cc:Work>
    </rdf:RDF>
  </metadata>
  <g
     inkscape:label="Layer 1"
     inkscape:groupmode="layer"
     id="layer1">
    <rect
       style="fill:#ffffff;fill-opacity:1;stroke:none;stroke-width:3;stroke-linecap:round;stroke-linejoin:round;stroke-miterlimit:4;stroke-dasharray:none;stroke-opacity:1"
       id="rect4727"
       width="63.688984"
       height="23.434521"
       x="76.729164"
       y="108.20089"
       rx="0.61806136"
       ry="0.61806136" />
    <rect
       style="fill:#e7fbd3;fill-opacity:1;stroke:none;stroke-width:3.95272589;stroke-linecap:round;stroke-linejoin:round;stroke-miterlimit:4;stroke-dasharray:none;stroke-dashoffset:0;stroke-opacity:1"
       id="rect4821"
       width="19.676062"
       height="33.554405"
       x="78.017059"
       y="75.213455"
       rx="0"
       ry="0" />
    <text
       xml:space="preserve"
       style="font-style:normal;font-variant:normal;font-weight:normal;font-stretch:normal;font-size:34.17816925px;line-height:1.25;font-family:'Ubuntu Mono';-inkscape-font-specification:'Ubuntu Mono, Normal';font-variant-ligatures:normal;font-variant-caps:normal;font-variant-numeric:normal;font-feature-settings:normal;text-align:start;letter-spacing:0px;word-spacing:0px;writing-mode:lr-tb;text-anchor:start;fill:#333333;fill-opacity:1;stroke:none;stroke-width:0.35602131"
       x="79.042229"
       y="101.79787"
       id="text4815"><tspan
         sodipodi:role="line"
         id="tspan4813"
         x="79.042229"
         y="101.79787"
         style="font-style:normal;font-variant:normal;font-weight:normal;font-stretch:normal;font-size:34.17816925px;font-family:'Ubuntu Mono';-inkscape-font-specification:'Ubuntu Mono, Normal';font-variant-ligatures:normal;font-variant-caps:normal;font-variant-numeric:normal;font-feature-settings:normal;text-align:start;writing-mode:lr-tb;text-anchor:start;fill:#333333;fill-opacity:1;stroke-width:0.35602131">K</tspan></text>
    <text
       xml:space="preserve"
       style="font-style:normal;font-variant:normal;font-weight:normal;font-stretch:normal;font-size:13.83594513px;line-height:1.25;font-family:'Ubuntu Mono';-inkscape-font-specification:'Ubuntu Mono, Normal';font-variant-ligatures:normal;font-variant-caps:normal;font-variant-numeric:normal;font-feature-settings:normal;text-align:start;letter-spacing:0px;word-spacing:0px;writing-mode:lr-tb;text-anchor:start;fill:#333333;fill-opacity:1;stroke:none;stroke-width:0.4272204"
       x="98.182243"
       y="102.03618"
       id="text4819"><tspan
         sodipodi:role="line"
         id="tspan4817"
         x="98.182243"
         y="102.03618"
         style="font-style:normal;font-variant:normal;font-weight:normal;font-stretch:normal;font-size:13.83594513px;font-family:'Ubuntu Mono';-inkscape-font-specification:'Ubuntu Mono, Normal';font-variant-ligatures:normal;font-variant-caps:normal;font-variant-numeric:normal;font-feature-settings:normal;text-align:start;writing-mode:lr-tb;text-anchor:start;fill:#333333;fill-opacity:1;stroke-width:0.4272204">eyact</tspan></text>
    <text
       xml:space="preserve"
       style="font-style:normal;font-variant:normal;font-weight:normal;font-stretch:normal;font-size:6.63553381px;line-height:1.25;font-family:'Ubuntu Mono';-inkscape-font-specification:'Ubuntu Mono, Normal';font-variant-ligatures:normal;font-variant-caps:normal;font-variant-numeric:normal;font-feature-settings:normal;text-align:start;letter-spacing:0px;word-spacing:0px;writing-mode:lr-tb;text-anchor:start;fill:#333333;fill-opacity:1;stroke:none;stroke-width:0.1268906"
       x="126.58574"
       y="91.416687"
       id="text4825"><tspan
         sodipodi:role="line"
         id="tspan4823"
         x="126.58574"
         y="91.416687"
         style="font-style:normal;font-variant:normal;font-weight:normal;font-stretch:normal;font-size:6.63553381px;font-family:'Ubuntu Mono';-inkscape-font-specification:'Ubuntu Mono, Normal';font-variant-ligatures:normal;font-variant-caps:normal;font-variant-numeric:normal;font-feature-settings:normal;text-align:start;writing-mode:lr-tb;text-anchor:start;fill:#333333;fill-opacity:1;stroke-width:0.1268906">100%</tspan></text>
    <path
       style="fill:#000000;fill-opacity:1;stroke:none;stroke-width:1.79999971;stroke-linecap:round;stroke-linejoin:round;stroke-miterlimit:4;stroke-dasharray:none;stroke-opacity:1"
       d="m 77.204984,105.94667 c -1.278718,0 -2.307871,1.02967 -2.307871,2.30838 v 22.34386 c 0,1.27872 1.029153,2.30839 2.307871,2.30839 h 63.344456 c 1.27872,0 2.30787,-1.02967 2.30787,-2.30839 v -22.34386 c 0,-1.27871 -1.02915,-2.30838 -2.30787,-2.30838 z m 1.669147,3.9088 h 4.681368 c 0.342406,0 0.618051,0.27566 0.618051,0.61806 v 4.68136 c 0,0.34241 -0.275645,0.61805 -0.618051,0.61805 h -4.681368 c -0.342405,0 -0.61805,-0.27564 -0.618048,-0.61805 v -4.68136 c 0,-0.3424 0.275643,-0.61806 0.618048,-0.61806 z m 7.903395,0 h 4.681369 c 0.342405,0 0.618048,0.27566 0.618048,0.61806 v 4.68136 c 0,0.34241 -0.275643,0.61805 -0.618048,0.61805 h -4.681369 c -0.342407,0 -0.61805,-0.27564 -0.61805,-0.61805 v -4.68136 c 0,-0.3424 0.275643,-0.61806 0.61805,-0.61806 z m 7.903909,0 h 4.680852 c 0.342405,0 0.618051,0.27566 0.618051,0.61806 v 4.68136 c 0,0.34241 -0.275646,0.61805 -0.618051,0.61805 h -4.680852 c -0.342405,0 -0.618048,-0.27564 -0.618048,-0.61805 v -4.68136 c 0,-0.3424 0.275643,-0.61806 0.618048,-0.61806 z m 7.903395,0 h 4.68137 c 0.3424,0 0.61805,0.27566 0.61805,0.61806 v 4.68136 c 0,0.34241 -0.27565,0.61805 -0.61805,0.61805 h -4.68137 c -0.34241,0 -0.61805,-0.27564 -0.61805,-0.61805 v -4.68136 c 0,-0.3424 0.27564,-0.61806 0.61805,-0.61806 z m 7.9034,0 h 4.68136 c 0.34241,0 0.61806,0.27566 0.61806,0.61806 v 4.68136 c 0,0.34241 -0.27565,0.61805 -0.61806,0.61805 h -4.68136 c -0.34241,0 -0.61805,-0.27564 -0.61805,-0.61805 v -4.68136 c 0,-0.3424 0.27564,-0.61806 0.61805,-0.61806 z m 7.90391,0 h 4.68085 c 0.3424,0 0.61805,0.27566 0.61805,0.61806 v 4.68136 c 0,0.34241 -0.27565,0.61805 -0.61805,0.61805 h -4.68085 c -0.34241,0 -0.61805,-0.27564 -0.61805,-0.61805 v -4.68136 c 0,-0.3424 0.27564,-0.61806 0.61805,-0.61806 z m 7.90339,0 h 4.68137 c 0.3424,0 0.61805,0.27566 0.61805,0.61806 v 4.68136 c 0,0.34241 -0.27565,0.61805 -0.61805,0.61805 h -4.68137 c -0.34241,0 -0.61805,-0.27564 -0.61805,-0.61805 v -4.68136 c 0,-0.3424 0.27564,-0.61806 0.61805,-0.61806 z m 7.9034,0 h 4.68136 c 0.34241,0 0.61805,0.27566 0.61805,0.61806 v 4.68136 c 0,0.34241 -0.27564,0.61805 -0.61805,0.61805 h -4.68136 c -0.34241,0 -0.61806,-0.27564 -0.61806,-0.61805 v -4.68136 c 0,-0.3424 0.27565,-0.61806 0.61806,-0.61806 z m -51.315739,7.76956 h 4.681368 c 0.342405,0 0.618048,0.27564 0.618048,0.61805 v 4.68136 c 0,0.34241 -0.275643,0.61805 -0.618048,0.61805 h -4.681368 c -0.342408,0 -0.618051,-0.27564 -0.618051,-0.61805 v -4.68136 c 0,-0.34241 0.275643,-0.61805 0.618051,-0.61805 z m 7.903392,0 h 4.681368 c 0.342405,0 0.618051,0.27564 0.618051,0.61805 v 4.68136 c 0,0.34241 -0.275646,0.61805 -0.618051,0.61805 h -4.681368 c -0.342405,0 -0.618051,-0.27564 -0.618051,-0.61805 v -4.68136 c 0,-0.34241 0.275646,-0.61805 0.618051,-0.61805 z m 7.903911,0 h 4.680846 c 0.34241,0 0.61805,0.27564 0.61805,0.61805 v 4.68136 c 0,0.34241 -0.27564,0.61805 -0.61805,0.61805 h -4.680846 c -0.342408,0 -0.618051,-0.27564 -0.618051,-0.61805 v -4.68136 c 0,-0.34241 0.275643,-0.61805 0.618051,-0.61805 z m 7.903396,0 h 4.68137 c 0.34241,0 0.61805,0.27564 0.61805,0.61805 v 4.68136 c 0,0.34241 -0.27564,0.61805 -0.61805,0.61805 h -4.68137 c -0.34241,0 -0.61805,-0.27564 -0.61805,-0.61805 v -4.68136 c 0,-0.34241 0.27564,-0.61805 0.61805,-0.61805 z m 7.90339,0 h 4.68137 c 0.34241,0 0.61805,0.27564 0.61805,0.61805 v 4.68136 c 0,0.34241 -0.27564,0.61805 -0.61805,0.61805 h -4.68137 c -0.3424,0 -0.61804,-0.27564 -0.61804,-0.61805 v -4.68136 c 0,-0.34241 0.27564,-0.61805 0.61804,-0.61805 z m 7.90391,0 h 4.68086 c 0.3424,0 0.61805,0.27564 0.61805,0.61805 v 4.68136 c 0,0.34241 -0.27565,0.61805 -0.61805,0.61805 h -4.68086 c -0.3424,0 -0.61805,-0.27564 -0.61805,-0.61805 v -4.68136 c 0,-0.34241 0.27565,-0.61805 0.61805,-0.61805 z m 7.9034,0 h 4.68085 c 0.3424,0 0.61857,0.27564 0.61857,0.61805 v 4.68136 c 0,0.34241 -0.27617,0.61805 -0.61857,0.61805 h -4.68085 c -0.34241,0 -0.61805,-0.27564 -0.61805,-0.61805 v -4.68136 c 0,-0.34241 0.27564,-0.61805 0.61805,-0.61805 z m -37.039089,7.76955 h 31.337629 c 0.3424,0 0.61805,0.27565 0.61805,0.61805 v 3.87935 c 0,0.34241 -0.27565,0.61805 -0.61805,0.61805 H 93.265501 c -0.342405,0 -0.61805,-0.27564 -0.61805,-0.61805 v -3.87935 c 0,-0.3424 0.275645,-0.61805 0.61805,-0.61805 z"
       id="rect815"
       inkscape:connector-curvature="0" />
  </g>
</svg>
